name rise44.9368peak50.754fall52.0217.mot
datacolumns 19
datarows 61
range 6.266643 6.366643
endheader
time	ground_force1_vx	ground_force1_vy	ground_force1_vz	ground_force1_px	ground_force1_py	ground_force1_pz	ground_force2_vx	ground_force2_vy	ground_force2_vz	ground_force2_px	ground_force2_py	ground_force2_pz	ground_torque1_x	ground_torque1_y	ground_torque1_z	ground_torque2_x	ground_torque2_y	ground_torque2_z	
6.266643	0.000000	0.000000	0.000000	0.000000	0.000000	0.000000	64.200732	784.331841	-51.957788	0.395107	0.000000	-0.123876	0.000000	0.000000	0.000000	0.000000	-22.049109	0.000000	
6.268313	0.000000	0.000000	0.000000	0.000000	0.000000	0.000000	63.846396	786.840785	-52.175868	0.394741	0.000000	-0.123856	0.000000	0.000000	0.000000	0.000000	-22.240358	0.000000	
6.269983	0.000000	0.000000	0.000000	0.000000	0.000000	0.000000	63.485074	789.211146	-52.386796	0.394386	0.000000	-0.123835	0.000000	0.000000	0.000000	0.000000	-22.428397	0.000000	
6.271643	0.000000	0.000000	0.000000	0.000000	0.000000	0.000000	63.116919	791.441392	-52.590085	0.394041	0.000000	-0.123814	0.000000	0.000000	0.000000	0.000000	-22.612792	0.000000	
6.273318	0.000000	0.000000	0.000000	0.000000	0.000000	0.000000	62.742089	793.530212	-52.785259	0.393706	0.000000	-0.123794	0.000000	0.000000	0.000000	0.000000	-22.793118	0.000000	
6.274981	0.000000	0.000000	0.000000	0.000000	0.000000	0.000000	62.360738	795.476517	-52.971864	0.393379	0.000000	-0.123773	0.000000	0.000000	0.000000	0.000000	-22.968957	0.000000	
6.276651	0.000000	0.000000	0.000000	0.000000	0.000000	0.000000	61.973022	797.279448	-53.149462	0.393059	0.000000	-0.123752	0.000000	0.000000	0.000000	0.000000	-23.139903	0.000000	
6.278309	0.000000	0.000000	0.000000	0.000000	0.000000	0.000000	61.579100	798.938370	-53.317638	0.392745	0.000000	-0.123731	0.000000	0.000000	0.000000	0.000000	-23.305568	0.000000	
6.279980	0.000000	0.000000	0.000000	0.000000	0.000000	0.000000	61.179129	800.452878	-53.476002	0.392435	0.000000	-0.123711	0.000000	0.000000	0.000000	0.000000	-23.465575	0.000000	
6.281647	0.000000	0.000000	0.000000	0.000000	0.000000	0.000000	60.773268	801.822793	-53.624193	0.392127	0.000000	-0.123690	0.000000	0.000000	0.000000	0.000000	-23.619567	0.000000	
6.283315	0.000000	0.000000	0.000000	0.000000	0.000000	0.000000	60.361679	803.048164	-53.761877	0.391822	0.000000	-0.123669	0.000000	0.000000	0.000000	0.000000	-23.767207	0.000000	
6.284976	0.000000	0.000000	0.000000	0.000000	0.000000	0.000000	59.944524	804.129266	-53.888754	0.391516	0.000000	-0.123649	0.000000	0.000000	0.000000	0.000000	-23.908180	0.000000	
6.286643	0.000000	0.000000	0.000000	0.000000	0.000000	0.000000	59.521964	805.066597	-54.004557	0.391209	0.000000	-0.123628	0.000000	0.000000	0.000000	0.000000	-24.042191	0.000000	
6.288310	0.000000	0.000000	0.000000	0.000000	0.000000	0.000000	59.094165	805.860874	-54.109052	0.390900	0.000000	-0.123608	0.000000	0.000000	0.000000	0.000000	-24.168972	0.000000	
6.289981	0.000000	0.000000	0.000000	0.000000	0.000000	0.000000	58.661291	806.513036	-54.202042	0.390587	0.000000	-0.123588	0.000000	0.000000	0.000000	0.000000	-24.288278	0.000000	
6.291649	0.000000	0.000000	0.000000	0.000000	0.000000	0.000000	58.223510	807.024233	-54.283369	0.390269	0.000000	-0.123568	0.000000	0.000000	0.000000	0.000000	-24.399893	0.000000	
6.293317	0.000000	0.000000	0.000000	0.000000	0.000000	0.000000	57.780988	807.395826	-54.352911	0.389944	0.000000	-0.123549	0.000000	0.000000	0.000000	0.000000	-24.503627	0.000000	
6.294976	0.000000	0.000000	0.000000	0.000000	0.000000	0.000000	57.333893	807.629380	-54.410584	0.389612	0.000000	-0.123530	0.000000	0.000000	0.000000	0.000000	-24.599316	0.000000	
6.296650	0.000000	0.000000	0.000000	0.000000	0.000000	0.000000	56.882395	807.726663	-54.456344	0.389271	0.000000	-0.123511	0.000000	0.000000	0.000000	0.000000	-24.686828	0.000000	
6.298310	0.000000	0.000000	0.000000	0.000000	0.000000	0.000000	56.426663	807.689635	-54.490186	0.388919	0.000000	-0.123493	0.000000	0.000000	0.000000	0.000000	-24.766058	0.000000	
6.299983	0.000000	0.000000	0.000000	0.000000	0.000000	0.000000	55.966867	807.520445	-54.512142	0.388556	0.000000	-0.123475	0.000000	0.000000	0.000000	0.000000	-24.836929	0.000000	
6.301654	0.000000	0.000000	0.000000	0.000000	0.000000	0.000000	55.503176	807.221423	-54.522283	0.388179	0.000000	-0.123457	0.000000	0.000000	0.000000	0.000000	-24.899395	0.000000	
6.303313	0.000000	0.000000	0.000000	0.000000	0.000000	0.000000	55.035761	806.795077	-54.520719	0.387788	0.000000	-0.123440	0.000000	0.000000	0.000000	0.000000	-24.953439	0.000000	
6.304979	0.000000	0.000000	0.000000	0.000000	0.000000	0.000000	54.564791	806.244081	-54.507592	0.387382	0.000000	-0.123424	0.000000	0.000000	0.000000	0.000000	-24.999069	0.000000	
6.306646	0.000000	0.000000	0.000000	0.000000	0.000000	0.000000	54.090437	805.571269	-54.483084	0.386959	0.000000	-0.123408	0.000000	0.000000	0.000000	0.000000	-25.036326	0.000000	
6.308313	0.000000	0.000000	0.000000	0.000000	0.000000	0.000000	53.612866	804.779629	-54.447409	0.386518	0.000000	-0.123394	0.000000	0.000000	0.000000	0.000000	-25.065273	0.000000	
6.309981	0.000000	0.000000	0.000000	0.000000	0.000000	0.000000	53.132247	803.872295	-54.400812	0.386058	0.000000	-0.123379	0.000000	0.000000	0.000000	0.000000	-25.086004	0.000000	
6.311646	0.000000	0.000000	0.000000	0.000000	0.000000	0.000000	52.648746	802.852535	-54.343571	0.385577	0.000000	-0.123366	0.000000	0.000000	0.000000	0.000000	-25.098635	0.000000	
6.313316	0.000000	0.000000	0.000000	0.000000	0.000000	0.000000	52.162531	801.723749	-54.275991	0.385075	0.000000	-0.123354	0.000000	0.000000	0.000000	0.000000	-25.103309	0.000000	
6.314977	0.000000	0.000000	0.000000	0.000000	0.000000	0.000000	51.673765	800.489453	-54.198405	0.384550	0.000000	-0.123343	0.000000	0.000000	0.000000	0.000000	-25.100189	0.000000	
6.316651	0.000000	0.000000	0.000000	0.000000	0.000000	0.000000	51.182612	799.153277	-54.111171	0.384001	0.000000	-0.123332	0.000000	0.000000	0.000000	0.000000	-25.089463	0.000000	
6.318314	0.000000	0.000000	0.000000	0.000000	0.000000	0.000000	50.689231	797.718954	-54.014669	0.383428	0.000000	-0.123323	0.000000	0.000000	0.000000	0.000000	-25.071337	0.000000	
6.319982	0.000000	0.000000	0.000000	0.000000	0.000000	0.000000	50.193784	796.190307	-53.909298	0.382829	0.000000	-0.123315	0.000000	0.000000	0.000000	0.000000	-25.046036	0.000000	
6.321643	0.000000	0.000000	0.000000	0.000000	0.000000	0.000000	49.696426	794.571248	-53.795477	0.382203	0.000000	-0.123308	0.000000	0.000000	0.000000	0.000000	-25.013803	0.000000	
6.323318	0.000000	0.000000	0.000000	0.000000	0.000000	0.000000	49.197312	792.865762	-53.673638	0.381549	0.000000	-0.123303	0.000000	0.000000	0.000000	0.000000	-24.974895	0.000000	
6.324983	0.000000	0.000000	0.000000	0.000000	0.000000	0.000000	48.696593	791.077900	-53.544228	0.380867	0.000000	-0.123299	0.000000	0.000000	0.000000	0.000000	-24.929585	0.000000	
6.326645	0.000000	0.000000	0.000000	0.000000	0.000000	0.000000	48.194418	789.211775	-53.407702	0.380155	0.000000	-0.123296	0.000000	0.000000	0.000000	0.000000	-24.878156	0.000000	
6.328311	0.000000	0.000000	0.000000	0.000000	0.000000	0.000000	47.690934	787.271544	-53.264525	0.379413	0.000000	-0.123295	0.000000	0.000000	0.000000	0.000000	-24.820902	0.000000	
6.329980	0.000000	0.000000	0.000000	0.000000	0.000000	0.000000	47.186282	785.261407	-53.115167	0.378640	0.000000	-0.123295	0.000000	0.000000	0.000000	0.000000	-24.758126	0.000000	
6.331643	0.000000	0.000000	0.000000	0.000000	0.000000	0.000000	46.680601	783.185595	-52.960100	0.377835	0.000000	-0.123297	0.000000	0.000000	0.000000	0.000000	-24.690138	0.000000	
6.333313	0.000000	0.000000	0.000000	0.000000	0.000000	0.000000	46.174026	781.048361	-52.799797	0.376999	0.000000	-0.123301	0.000000	0.000000	0.000000	0.000000	-24.617251	0.000000	
6.334984	0.000000	0.000000	0.000000	0.000000	0.000000	0.000000	45.666688	778.853974	-52.634729	0.376129	0.000000	-0.123306	0.000000	0.000000	0.000000	0.000000	-24.539785	0.000000	
6.336645	0.000000	0.000000	0.000000	0.000000	0.000000	0.000000	45.158713	776.606707	-52.465364	0.375226	0.000000	-0.123313	0.000000	0.000000	0.000000	0.000000	-24.458059	0.000000	
6.338312	0.000000	0.000000	0.000000	0.000000	0.000000	0.000000	44.650223	774.310832	-52.292162	0.374290	0.000000	-0.123322	0.000000	0.000000	0.000000	0.000000	-24.372395	0.000000	
6.339978	0.000000	0.000000	0.000000	0.000000	0.000000	0.000000	44.141336	771.970611	-52.115577	0.373320	0.000000	-0.123333	0.000000	0.000000	0.000000	0.000000	-24.283112	0.000000	
6.341644	0.000000	0.000000	0.000000	0.000000	0.000000	0.000000	43.632165	769.590287	-51.936051	0.372315	0.000000	-0.123345	0.000000	0.000000	0.000000	0.000000	-24.190528	0.000000	
6.343310	0.000000	0.000000	0.000000	0.000000	0.000000	0.000000	43.122816	767.174079	-51.754016	0.371276	0.000000	-0.123360	0.000000	0.000000	0.000000	0.000000	-24.094956	0.000000	
6.344984	0.000000	0.000000	0.000000	0.000000	0.000000	0.000000	42.613394	764.726175	-51.569890	0.370203	0.000000	-0.123376	0.000000	0.000000	0.000000	0.000000	-23.996706	0.000000	
6.346645	0.000000	0.000000	0.000000	0.000000	0.000000	0.000000	42.103994	762.250720	-51.384075	0.369096	0.000000	-0.123394	0.000000	0.000000	0.000000	0.000000	-23.896080	0.000000	
6.348309	0.000000	0.000000	0.000000	0.000000	0.000000	0.000000	41.594710	759.751816	-51.196959	0.367954	0.000000	-0.123415	0.000000	0.000000	0.000000	0.000000	-23.793375	0.000000	
6.349976	0.000000	0.000000	0.000000	0.000000	0.000000	0.000000	41.085629	757.233511	-51.008909	0.366778	0.000000	-0.123437	0.000000	0.000000	0.000000	0.000000	-23.688879	0.000000	
6.351656	0.000000	0.000000	0.000000	0.000000	0.000000	0.000000	40.576832	754.699797	-50.820278	0.365568	0.000000	-0.123461	0.000000	0.000000	0.000000	0.000000	-23.582873	0.000000	
6.353317	0.000000	0.000000	0.000000	0.000000	0.000000	0.000000	40.068396	752.154599	-50.631397	0.364325	0.000000	-0.123487	0.000000	0.000000	0.000000	0.000000	-23.475626	0.000000	
6.354981	0.000000	0.000000	0.000000	0.000000	0.000000	0.000000	39.560392	749.601774	-50.442579	0.363049	0.000000	-0.123515	0.000000	0.000000	0.000000	0.000000	-23.367402	0.000000	
6.356644	0.000000	0.000000	0.000000	0.000000	0.000000	0.000000	39.052886	747.045103	-50.254116	0.361741	0.000000	-0.123545	0.000000	0.000000	0.000000	0.000000	-23.258449	0.000000	
6.358317	0.000000	0.000000	0.000000	0.000000	0.000000	0.000000	38.545940	744.488290	-50.066278	0.360402	0.000000	-0.123577	0.000000	0.000000	0.000000	0.000000	-23.149009	0.000000	
6.359976	0.000000	0.000000	0.000000	0.000000	0.000000	0.000000	38.039608	741.934953	-49.879316	0.359031	0.000000	-0.123610	0.000000	0.000000	0.000000	0.000000	-23.039312	0.000000	
6.361646	0.000000	0.000000	0.000000	0.000000	0.000000	0.000000	37.533943	739.388623	-49.693461	0.357631	0.000000	-0.123646	0.000000	0.000000	0.000000	0.000000	-22.929575	0.000000	
6.363316	0.000000	0.000000	0.000000	0.000000	0.000000	0.000000	37.028991	736.852739	-49.508922	0.356201	0.000000	-0.123683	0.000000	0.000000	0.000000	0.000000	-22.820008	0.000000	
6.364982	0.000000	0.000000	0.000000	0.000000	0.000000	0.000000	36.524794	734.330647	-49.325888	0.354744	0.000000	-0.123722	0.000000	0.000000	0.000000	0.000000	-22.710806	0.000000	
6.366643	0.000000	0.000000	0.000000	0.000000	0.000000	0.000000	36.021389	731.825593	-49.144528	0.353260	0.000000	-0.123762	0.000000	0.000000	0.000000	0.000000	-22.602156	0.000000	
